<svg width="12" height="12" viewBox="0 0 12 12" fill="none" xmlns="http://www.w3.org/2000/svg">
<path d="M10 6V11H2V6" stroke="black" stroke-linecap="round" stroke-linejoin="round"/>
<path d="M11 3.5H1V6H11V3.5Z" stroke="black" stroke-linecap="round" stroke-linejoin="round"/>
<path d="M6 11V3.5" stroke="black" stroke-linecap="round" stroke-linejoin="round"/>
<path d="M6 3.5H3.75C3.41848 3.5 3.10054 3.3683 2.86612 3.13388C2.6317 2.89946 2.5 2.58152 2.5 2.25C2.5 1.91848 2.6317 1.60054 2.86612 1.36612C3.10054 1.1317 3.41848 1 3.75 1C5.5 1 6 3.5 6 3.5Z" stroke="black" stroke-linecap="round" stroke-linejoin="round"/>
<path d="M6 3.5H8.25C8.58152 3.5 8.89946 3.3683 9.13388 3.13388C9.3683 2.89946 9.5 2.58152 9.5 2.25C9.5 1.91848 9.3683 1.60054 9.13388 1.36612C8.89946 1.1317 8.58152 1 8.25 1C6.5 1 6 3.5 6 3.5Z" stroke="black" stroke-linecap="round" stroke-linejoin="round"/>
</svg>
