<svg width="326" height="40" viewBox="0 0 326 40" fill="none" xmlns="http://www.w3.org/2000/svg">
<path d="M24.7531 0.976379C25.8517 0.976379 26.401 1.52298 26.401 2.61041V8.69423C26.401 9.72777 25.8517 10.3283 24.7531 10.3283H11.4416C10.3956 10.3283 9.78984 10.871 9.78984 11.9584V13.6906C9.78984 14.7242 10.3956 15.3208 11.4416 15.3208H19.9673C21.0678 15.3208 21.6171 15.8674 21.6171 16.9548V23.0387C21.6171 24.0741 21.0678 24.6727 19.9673 24.6727H11.4416C10.3956 24.6727 9.78984 25.2135 9.78984 26.3009V28.0331C9.78984 29.0686 10.3956 29.6672 11.4416 29.6672H24.7531C25.8517 29.6672 26.401 30.208 26.401 31.2954V37.385C26.401 38.4686 25.8517 39.0133 24.7531 39.0133H1.65177C0.605778 39.0133 0 38.4166 0 37.385V2.61041C0 1.52298 0.605778 0.976379 1.65177 0.976379H24.7531Z" fill="#1169FE"/>
<path d="M44.5416 0.976379C54.8826 0.976379 58.2933 5.1086 58.2933 14.0216V25.9237C58.2933 34.8367 54.8826 39.0228 44.5416 39.0228H32.2702C31.2242 39.0228 30.6204 38.4262 30.6204 37.3946V2.66237C30.6204 1.57495 31.1697 1.03219 32.2702 0.976379H44.5416ZM44.7071 29.6767C47.3484 29.6767 48.6671 29.2379 48.6671 25.9795V14.0216C48.6671 10.6516 47.3484 10.3282 44.7071 10.3282H41.7367C40.6926 10.3282 40.0849 10.871 40.0849 11.9584V28.0427C40.0849 29.0782 40.6926 29.6767 41.7367 29.6767H44.7071Z" fill="#1169FE"/>
<path d="M62.6802 13.205C62.6802 9.62325 63.4496 0 76.4865 0C88.0372 0 89.9617 7.50613 90.2363 11.7404C90.2908 12.72 89.7961 13.3186 88.8066 13.5341L82.5891 14.891C81.4885 15.1085 80.8828 14.6196 80.7737 13.4783C80.5555 10.8704 79.6186 9.34802 76.4884 9.34802C72.4174 9.34802 72.1428 11.902 72.1428 16.0843V23.9118C72.1428 28.096 72.4174 30.6481 76.4884 30.6481C80.5594 30.6481 80.836 28.0999 80.836 25.4362H77.6416C76.5956 25.4362 75.9898 24.8376 75.9898 23.8041V19.4563C75.9898 18.3689 76.5956 17.8261 77.6416 17.8261H88.641C89.7422 17.8261 90.2921 18.3695 90.2908 19.4563V26.795C90.2908 30.3806 89.5117 40 76.4865 40C63.4613 40 62.6802 30.3768 62.6802 26.795V13.205Z" fill="#1169FE"/>
<path d="M121.794 37.1746C121.794 38.3698 121.246 39.0223 120.146 39.0223H113.985C112.939 39.0223 112.335 38.4776 112.335 37.394V32.6632C112.335 31.5758 111.784 31.035 110.685 31.035H105.962C104.916 31.035 104.312 31.5758 104.312 32.6632V37.394C104.312 38.4776 103.761 39.0223 102.662 39.0223H96.4933C95.4493 39.0223 94.8435 38.3698 94.8435 37.1746V14.1289C94.8435 7.28288 95.9421 0 108.321 0C120.699 0 121.794 7.28288 121.794 14.1289V37.1746ZM112.335 14.1289C112.335 11.5229 111.945 10.216 108.321 10.216C104.696 10.216 104.304 11.5229 104.304 14.1289V20.0529C104.304 21.0865 104.908 21.6831 105.954 21.6831H110.685C111.784 21.6311 112.335 21.0865 112.335 20.001V14.1289Z" fill="#1169FE"/>
<path d="M155.995 36.0887C156.774 37.5033 155.886 39.0238 154.182 39.0238H147.912C147.649 39.0338 147.388 38.9671 147.163 38.8319C146.938 38.6967 146.758 38.4991 146.646 38.2635L140.925 27.3315C140.879 27.2544 140.815 27.1894 140.739 27.1421C140.662 27.0948 140.575 27.0667 140.485 27.0602H138.286C138.059 27.0518 137.834 27.0896 137.623 27.1713C137.412 27.2529 137.221 27.3767 137.061 27.5347C136.901 27.6928 136.775 27.8817 136.692 28.0899C136.61 28.298 136.571 28.5207 136.579 28.7442V37.3397C136.587 37.563 136.548 37.7854 136.466 37.9933C136.383 38.2011 136.257 38.3899 136.098 38.5479C135.938 38.7058 135.747 38.8296 135.536 38.9115C135.326 38.9933 135.101 39.0316 134.875 39.0238H128.714C128.488 39.0316 128.263 38.9933 128.052 38.9115C127.842 38.8296 127.651 38.7058 127.491 38.5479C127.331 38.3899 127.206 38.2011 127.123 37.9933C127.04 37.7854 127.002 37.563 127.01 37.3397V2.6633C127.002 2.43996 127.04 2.2174 127.123 2.00946C127.206 1.80151 127.331 1.61262 127.491 1.45451C127.651 1.29639 127.842 1.17244 128.052 1.09035C128.263 1.00826 128.488 0.96978 128.714 0.977303H140.759C150.551 0.977303 154.511 5.10953 154.511 14.0226C154.511 19.0786 153.245 22.6084 150.331 24.6774C150.226 24.7587 150.153 24.8728 150.123 25.0009C150.093 25.129 150.108 25.2634 150.165 25.3819L155.995 36.0887ZM138.286 10.3292C138.06 10.3208 137.834 10.3586 137.624 10.4402C137.413 10.5217 137.222 10.6452 137.062 10.8031C136.902 10.9609 136.776 11.1497 136.693 11.3575C136.61 11.5654 136.571 11.788 136.579 12.0113V16.0338C136.571 16.2573 136.61 16.4801 136.693 16.6881C136.776 16.8962 136.901 17.0852 137.061 17.2434C137.222 17.4015 137.413 17.5254 137.623 17.6074C137.834 17.6893 138.059 17.7276 138.286 17.7198H141.09C143.732 17.7198 145.05 17.3926 145.05 14.0226C145.05 10.6525 143.732 10.3292 141.09 10.3292H138.286Z" fill="#1169FE"/>
<path d="M202.783 37.1746C202.783 38.3698 202.234 39.0223 201.133 39.0223H194.978C193.93 39.0223 193.326 38.4776 193.326 37.394V32.6632C193.326 31.5758 192.775 31.035 191.677 31.035H186.941C185.897 31.035 185.292 31.5758 185.292 32.6632V37.394C185.292 38.4776 184.742 39.0223 183.642 39.0223H177.481C176.437 39.0223 175.831 38.3698 175.831 37.1746V14.1289C175.831 7.28288 176.931 0 189.308 0C201.685 0 202.783 7.28288 202.783 14.1289V37.1746ZM193.323 14.1289C193.323 11.5229 192.933 10.216 189.308 10.216C185.683 10.216 185.292 11.5229 185.292 14.1289V20.0529C185.292 21.0865 185.897 21.6831 186.941 21.6831H191.667C192.765 21.6311 193.317 21.0865 193.317 20.001L193.323 14.1289Z" fill="#1169FE"/>
<path d="M215.807 0.976379C216.907 0.976379 217.457 1.52298 217.457 2.61041V28.0427C217.457 29.0782 218.062 29.6767 219.106 29.6767H231.378C232.476 29.6767 233.028 30.2176 233.028 31.305V37.3946C233.028 38.4782 232.476 39.0228 231.378 39.0228H209.646C208.602 39.0228 207.996 38.4262 207.996 37.3946V2.61041C207.996 1.52298 208.602 0.976379 209.646 0.976379H215.807Z" fill="#1169FE"/>
<path d="M244.232 0.976379C245.334 0.976379 245.882 1.52298 245.882 2.61041V28.0427C245.882 29.0782 246.489 29.6767 247.533 29.6767H259.805C260.905 29.6767 261.455 30.2176 261.455 31.305V37.3946C261.455 38.4782 260.905 39.0228 259.805 39.0228H238.073C237.027 39.0228 236.423 38.4262 236.423 37.3946V2.61041C236.423 1.52298 237.027 0.976379 238.073 0.976379H244.232Z" fill="#1169FE"/>
<path d="M291.524 37.1746C291.524 38.3698 290.977 39.0223 289.874 39.0223H283.715C282.669 39.0223 282.065 38.4776 282.065 37.394V32.6632C282.065 31.5758 281.514 31.035 280.415 31.035H275.684C274.638 31.035 274.034 31.5758 274.034 32.6632V37.394C274.034 38.4776 273.483 39.0223 272.385 39.0223H266.224C265.18 39.0223 264.574 38.3698 264.574 37.1746V14.1289C264.574 7.28288 265.672 0 278.051 0C290.429 0 291.524 7.28288 291.524 14.1289V37.1746ZM282.065 14.1289C282.065 11.5229 281.676 10.216 278.051 10.216C274.426 10.216 274.034 11.5229 274.034 14.1289V20.0529C274.034 21.0865 274.638 21.6831 275.684 21.6831H280.415C281.514 21.6311 282.065 21.0865 282.065 20.001V14.1289Z" fill="#1169FE"/>
<path d="M306.472 0.976379C307.407 0.976379 308.013 1.36131 308.399 2.2274L315.878 20.3191C316.099 20.8099 316.537 20.704 316.537 20.1555V2.61041C316.537 1.52298 317.143 0.976379 318.189 0.976379H324.348C325.448 0.976379 325.999 1.52298 325.999 2.61041V37.3946C325.999 38.4262 325.448 39.0228 324.348 39.0228H316.264C315.327 39.0228 314.723 38.6379 314.338 37.7718L306.858 19.6801C306.638 19.1913 306.196 19.2952 306.196 19.8437V37.4004C306.196 38.432 305.648 39.0286 304.548 39.0286H298.387C297.341 39.0286 296.737 38.432 296.737 37.4004V2.61041C296.737 1.52298 297.341 0.976379 298.387 0.976379H306.472Z" fill="#1169FE"/>
</svg>
