<svg width="159" height="38" viewBox="0 0 159 38" fill="none" xmlns="http://www.w3.org/2000/svg">
<g clip-path="url(#clip0_453_272)">
<rect width="32.1417" height="154.528" rx="6.75762" transform="matrix(-4.37114e-08 1 1 4.37114e-08 2.47266 2.92975)" fill="#CE91FF"/>
<path d="M54.5206 23.5138C53.9046 23.5138 53.3072 23.3971 52.7286 23.1638C52.1592 22.9304 51.6552 22.5991 51.2166 22.1698L52.1686 21.0638C52.4952 21.3718 52.8686 21.6238 53.2886 21.8198C53.7086 22.0064 54.1286 22.0998 54.5486 22.0998C55.0712 22.0998 55.4679 21.9924 55.7386 21.7778C56.0092 21.5631 56.1446 21.2784 56.1446 20.9238C56.1446 20.5411 56.0092 20.2658 55.7386 20.0978C55.4772 19.9298 55.1412 19.7571 54.7306 19.5798L53.4706 19.0338C53.1719 18.9031 52.8779 18.7351 52.5886 18.5298C52.3086 18.3244 52.0752 18.0631 51.8886 17.7458C51.7112 17.4284 51.6226 17.0458 51.6226 16.5978C51.6226 16.1124 51.7532 15.6784 52.0146 15.2958C52.2852 14.9038 52.6492 14.5958 53.1066 14.3718C53.5732 14.1384 54.1052 14.0218 54.7026 14.0218C55.2346 14.0218 55.7479 14.1291 56.2426 14.3438C56.7372 14.5491 57.1619 14.8291 57.5166 15.1838L56.6906 16.2198C56.4012 15.9771 56.0932 15.7858 55.7666 15.6458C55.4492 15.5058 55.0946 15.4358 54.7026 15.4358C54.2732 15.4358 53.9232 15.5338 53.6526 15.7298C53.3912 15.9164 53.2606 16.1778 53.2606 16.5138C53.2606 16.7471 53.3259 16.9431 53.4566 17.1018C53.5966 17.2511 53.7786 17.3818 54.0026 17.4938C54.2266 17.5964 54.4646 17.6991 54.7166 17.8018L55.9626 18.3198C56.5039 18.5531 56.9472 18.8611 57.2926 19.2438C57.6379 19.6171 57.8106 20.1351 57.8106 20.7978C57.8106 21.2924 57.6799 21.7451 57.4186 22.1558C57.1572 22.5664 56.7792 22.8978 56.2846 23.1498C55.7992 23.3924 55.2112 23.5138 54.5206 23.5138ZM59.3355 26.0618V16.4718H60.6655L60.7775 17.1998H60.8335C61.1228 16.9571 61.4448 16.7471 61.7995 16.5698C62.1635 16.3924 62.5321 16.3038 62.9055 16.3038C63.7641 16.3038 64.4268 16.6211 64.8935 17.2558C65.3695 17.8904 65.6075 18.7398 65.6075 19.8038C65.6075 20.5878 65.4675 21.2598 65.1875 21.8198C64.9075 22.3704 64.5435 22.7904 64.0955 23.0798C63.6568 23.3691 63.1808 23.5138 62.6675 23.5138C62.3688 23.5138 62.0701 23.4484 61.7715 23.3178C61.4728 23.1778 61.1835 22.9911 60.9035 22.7578L60.9455 23.9058V26.0618H59.3355ZM62.3315 22.1838C62.7888 22.1838 63.1715 21.9831 63.4795 21.5818C63.7875 21.1804 63.9415 20.5924 63.9415 19.8178C63.9415 19.1271 63.8248 18.5904 63.5915 18.2078C63.3581 17.8251 62.9801 17.6338 62.4575 17.6338C61.9721 17.6338 61.4681 17.8904 60.9455 18.4038V21.6098C61.1975 21.8151 61.4401 21.9644 61.6735 22.0578C61.9068 22.1418 62.1261 22.1838 62.3315 22.1838ZM68.7398 23.5138C68.1424 23.5138 67.6524 23.3271 67.2698 22.9538C66.8964 22.5804 66.7098 22.0951 66.7098 21.4978C66.7098 20.7604 67.0318 20.1911 67.6758 19.7898C68.3198 19.3791 69.3464 19.0991 70.7558 18.9498C70.7464 18.5858 70.6484 18.2731 70.4618 18.0118C70.2844 17.7411 69.9624 17.6058 69.4958 17.6058C69.1598 17.6058 68.8284 17.6711 68.5018 17.8018C68.1844 17.9324 67.8718 18.0911 67.5638 18.2778L66.9758 17.1998C67.3584 16.9571 67.7878 16.7471 68.2638 16.5698C68.7491 16.3924 69.2624 16.3038 69.8038 16.3038C70.6624 16.3038 71.3018 16.5604 71.7218 17.0738C72.1511 17.5778 72.3658 18.3104 72.3658 19.2718V23.3458H71.0358L70.9238 22.5898H70.8678C70.5598 22.8511 70.2284 23.0704 69.8738 23.2478C69.5284 23.4251 69.1504 23.5138 68.7398 23.5138ZM69.2578 22.2538C69.5378 22.2538 69.7898 22.1884 70.0138 22.0578C70.2471 21.9178 70.4944 21.7311 70.7558 21.4978V19.9578C69.8224 20.0791 69.1738 20.2611 68.8098 20.5038C68.4458 20.7371 68.2638 21.0264 68.2638 21.3718C68.2638 21.6798 68.3571 21.9038 68.5438 22.0438C68.7304 22.1838 68.9684 22.2538 69.2578 22.2538ZM77.1625 23.5138C76.5372 23.5138 75.9725 23.3738 75.4685 23.0938C74.9738 22.8044 74.5772 22.3938 74.2785 21.8618C73.9892 21.3204 73.8445 20.6718 73.8445 19.9158C73.8445 19.1504 74.0032 18.5018 74.3205 17.9698C74.6378 17.4284 75.0578 17.0178 75.5805 16.7378C76.1125 16.4484 76.6818 16.3038 77.2885 16.3038C77.7272 16.3038 78.1098 16.3784 78.4365 16.5278C78.7632 16.6771 79.0525 16.8591 79.3045 17.0738L78.5205 18.1238C78.3432 17.9651 78.1612 17.8438 77.9745 17.7598C77.7878 17.6664 77.5872 17.6198 77.3725 17.6198C76.8218 17.6198 76.3692 17.8298 76.0145 18.2498C75.6692 18.6698 75.4965 19.2251 75.4965 19.9158C75.4965 20.5971 75.6645 21.1478 76.0005 21.5678C76.3458 21.9878 76.7892 22.1978 77.3305 22.1978C77.6012 22.1978 77.8532 22.1418 78.0865 22.0298C78.3292 21.9084 78.5485 21.7684 78.7445 21.6098L79.4025 22.6738C79.0852 22.9538 78.7305 23.1638 78.3385 23.3038C77.9465 23.4438 77.5545 23.5138 77.1625 23.5138ZM83.3575 23.5138C82.7228 23.5138 82.1488 23.3738 81.6355 23.0938C81.1222 22.8044 80.7162 22.3938 80.4175 21.8618C80.1188 21.3204 79.9695 20.6718 79.9695 19.9158C79.9695 19.1691 80.1188 18.5251 80.4175 17.9838C80.7255 17.4424 81.1222 17.0271 81.6075 16.7378C82.0928 16.4484 82.6015 16.3038 83.1335 16.3038C83.7588 16.3038 84.2815 16.4438 84.7015 16.7238C85.1215 16.9944 85.4388 17.3771 85.6535 17.8718C85.8682 18.3571 85.9755 18.9218 85.9755 19.5658C85.9755 19.9018 85.9522 20.1631 85.9055 20.3498H81.5375C81.6122 20.9564 81.8315 21.4278 82.1955 21.7638C82.5595 22.0998 83.0168 22.2678 83.5675 22.2678C83.8662 22.2678 84.1415 22.2258 84.3935 22.1418C84.6548 22.0484 84.9115 21.9224 85.1635 21.7638L85.7095 22.7718C85.3828 22.9864 85.0188 23.1638 84.6175 23.3038C84.2162 23.4438 83.7962 23.5138 83.3575 23.5138ZM81.5235 19.2578H84.5755C84.5755 18.7258 84.4588 18.3104 84.2255 18.0118C83.9922 17.7038 83.6422 17.5498 83.1755 17.5498C82.7742 17.5498 82.4148 17.6991 82.0975 17.9978C81.7895 18.2871 81.5982 18.7071 81.5235 19.2578ZM90.8452 23.5138C90.1919 23.5138 89.5665 23.2151 88.9692 22.6178H88.9272L88.7872 23.3458H87.5132V13.4618H89.1232V16.0098L89.0812 17.1578C89.3705 16.9058 89.6879 16.7004 90.0332 16.5418C90.3785 16.3831 90.7239 16.3038 91.0692 16.3038C91.9279 16.3038 92.5952 16.6211 93.0712 17.2558C93.5472 17.8904 93.7852 18.7351 93.7852 19.7898C93.7852 20.5738 93.6452 21.2458 93.3652 21.8058C93.0852 22.3564 92.7212 22.7811 92.2732 23.0798C91.8345 23.3691 91.3585 23.5138 90.8452 23.5138ZM90.5092 22.1838C90.9665 22.1838 91.3492 21.9831 91.6572 21.5818C91.9652 21.1804 92.1192 20.5924 92.1192 19.8178C92.1192 19.1271 92.0025 18.5904 91.7692 18.2078C91.5359 17.8251 91.1579 17.6338 90.6352 17.6338C90.1499 17.6338 89.6459 17.8904 89.1232 18.4038V21.6098C89.3659 21.8151 89.6039 21.9644 89.8372 22.0578C90.0799 22.1418 90.3039 22.1838 90.5092 22.1838ZM96.9038 23.5138C96.3065 23.5138 95.8165 23.3271 95.4338 22.9538C95.0605 22.5804 94.8738 22.0951 94.8738 21.4978C94.8738 20.7604 95.1958 20.1911 95.8398 19.7898C96.4838 19.3791 97.5105 19.0991 98.9198 18.9498C98.9105 18.5858 98.8125 18.2731 98.6258 18.0118C98.4485 17.7411 98.1265 17.6058 97.6598 17.6058C97.3238 17.6058 96.9925 17.6711 96.6658 17.8018C96.3485 17.9324 96.0358 18.0911 95.7278 18.2778L95.1398 17.1998C95.5225 16.9571 95.9518 16.7471 96.4278 16.5698C96.9132 16.3924 97.4265 16.3038 97.9678 16.3038C98.8265 16.3038 99.4658 16.5604 99.8858 17.0738C100.315 17.5778 100.53 18.3104 100.53 19.2718V23.3458H99.1998L99.0878 22.5898H99.0318C98.7238 22.8511 98.3925 23.0704 98.0378 23.2478C97.6925 23.4251 97.3145 23.5138 96.9038 23.5138ZM97.4218 22.2538C97.7018 22.2538 97.9538 22.1884 98.1778 22.0578C98.4112 21.9178 98.6585 21.7311 98.9198 21.4978V19.9578C97.9865 20.0791 97.3378 20.2611 96.9738 20.5038C96.6098 20.7371 96.4278 21.0264 96.4278 21.3718C96.4278 21.6798 96.5212 21.9038 96.7078 22.0438C96.8945 22.1838 97.1325 22.2538 97.4218 22.2538ZM102.457 23.3458V16.4718H103.787L103.899 17.6898H103.955C104.197 17.2418 104.491 16.9011 104.837 16.6678C105.182 16.4251 105.537 16.3038 105.901 16.3038C106.227 16.3038 106.489 16.3504 106.685 16.4438L106.405 17.8438C106.283 17.8064 106.171 17.7784 106.069 17.7598C105.966 17.7411 105.84 17.7318 105.691 17.7318C105.42 17.7318 105.135 17.8391 104.837 18.0538C104.538 18.2591 104.281 18.6231 104.067 19.1458V23.3458H102.457Z" fill="white"/>
</g>
<rect x="-1" y="-1" width="34.1417" height="156.528" rx="7.75762" transform="matrix(-4.37114e-08 1 1 4.37114e-08 2.47266 2.92975)" stroke="#CE91FF" stroke-width="2"/>
<rect x="-1" y="-1" width="34.1417" height="156.528" rx="7.75762" transform="matrix(-4.37114e-08 1 1 4.37114e-08 2.47266 2.92975)" stroke="black" stroke-opacity="0.2" stroke-width="2"/>
<defs>
<clipPath id="clip0_453_272">
<rect width="32.1417" height="154.528" rx="6.75762" transform="matrix(-4.37114e-08 1 1 4.37114e-08 2.47266 2.92975)" fill="white"/>
</clipPath>
</defs>
</svg>
