<svg width="14" height="12" viewBox="0 0 14 12" fill="none" xmlns="http://www.w3.org/2000/svg">
<path d="M4.3616 11.3342C9.5954 11.3342 12.4576 7.23018 12.4576 3.67134C12.4576 3.55477 12.455 3.43873 12.4495 3.32321C13.0051 2.94306 13.488 2.46865 13.8689 1.92861C13.359 2.1431 12.8104 2.2875 12.2348 2.35261C12.8223 2.01918 13.2733 1.49175 13.4861 0.862983C12.9363 1.17147 12.3275 1.39567 11.6793 1.51672C11.16 0.993237 10.4208 0.665817 9.60225 0.665817C8.0309 0.665817 6.75666 1.87194 6.75666 3.35865C6.75666 3.56999 6.78162 3.77556 6.83044 3.97274C4.46555 3.86011 2.36855 2.78843 0.965109 1.15886C0.720741 1.55687 0.579834 2.01919 0.579834 2.5125C0.579834 3.44688 1.08218 4.27175 1.84607 4.75432C1.37924 4.74066 0.940699 4.61937 0.557402 4.41748C0.556984 4.42878 0.556982 4.43979 0.556982 4.45187C0.556982 5.75618 1.5378 6.84517 2.83978 7.09193C2.60068 7.15363 2.34911 7.18671 2.08947 7.18671C1.90641 7.18671 1.72805 7.16965 1.55469 7.13814C1.91694 8.20823 2.96739 8.98694 4.21278 9.0087C3.2389 9.7312 2.01208 10.1615 0.67873 10.1615C0.449338 10.1615 0.222723 10.1492 0 10.1242C1.2593 10.8882 2.75461 11.334 4.36175 11.334" fill="#1169FE"/>
</svg>
