<svg width="39" height="39" viewBox="0 0 39 39" fill="none" xmlns="http://www.w3.org/2000/svg">
<rect x="-1" y="1" width="36.8657" height="36.8657" rx="8.5795" transform="matrix(1 0 0 -1 2 39)" fill="#CE91FF"/>
<path d="M14.243 27V13.266H16.994L19.43 19.986C19.584 20.42 19.731 20.868 19.871 21.33C20.025 21.778 20.172 22.226 20.312 22.674H20.396C20.55 22.226 20.697 21.778 20.837 21.33C20.977 20.868 21.117 20.42 21.257 19.986L23.63 13.266H26.402V27H24.155V20.721C24.155 20.287 24.169 19.818 24.197 19.314C24.239 18.796 24.281 18.278 24.323 17.76C24.379 17.242 24.428 16.773 24.47 16.353H24.386L23.273 19.545L21.026 25.719H19.577L17.309 19.545L16.217 16.353H16.133C16.175 16.773 16.217 17.242 16.259 17.76C16.315 18.278 16.357 18.796 16.385 19.314C16.427 19.818 16.448 20.287 16.448 20.721V27H14.243Z" fill="white"/>
<rect x="-1" y="1" width="36.8657" height="36.8657" rx="8.5795" transform="matrix(1 0 0 -1 2 39)" stroke="#CE91FF" stroke-width="2"/>
<rect x="-1" y="1" width="36.8657" height="36.8657" rx="8.5795" transform="matrix(1 0 0 -1 2 39)" stroke="black" stroke-opacity="0.2" stroke-width="2"/>
</svg>
