<svg width="39" height="39" viewBox="0 0 39 39" fill="none" xmlns="http://www.w3.org/2000/svg">
<rect x="-1" y="1" width="36.8657" height="36.8657" rx="8.5795" transform="matrix(1 0 0 -1 2 39)" fill="#CE91FF"/>
<path d="M19.9965 26.3868C18.8485 26.3868 17.8055 26.1138 16.8675 25.5678C15.9295 25.0218 15.1805 24.2238 14.6205 23.1738C14.0745 22.1098 13.8015 20.8218 13.8015 19.3098C13.8015 17.8118 14.0815 16.5308 14.6415 15.4668C15.2155 14.3888 15.9785 13.5698 16.9305 13.0098C17.8825 12.4358 18.9325 12.1488 20.0805 12.1488C20.9485 12.1488 21.7185 12.3238 22.3905 12.6738C23.0625 13.0238 23.6155 13.4298 24.0495 13.8918L22.7475 15.4668C22.3975 15.1028 22.0055 14.8158 21.5715 14.6058C21.1515 14.3818 20.6755 14.2698 20.1435 14.2698C19.4015 14.2698 18.7365 14.4728 18.1485 14.8788C17.5745 15.2708 17.1195 15.8378 16.7835 16.5798C16.4615 17.3218 16.3005 18.2108 16.3005 19.2468C16.3005 20.8148 16.6435 22.0468 17.3295 22.9428C18.0155 23.8248 18.9325 24.2658 20.0805 24.2658C20.6965 24.2658 21.2425 24.1398 21.7185 23.8878C22.1945 23.6218 22.6285 23.2788 23.0205 22.8588L24.3225 24.3918C23.7625 25.0358 23.1185 25.5328 22.3905 25.8828C21.6765 26.2188 20.8785 26.3868 19.9965 26.3868Z" fill="white"/>
<rect x="-1" y="1" width="36.8657" height="36.8657" rx="8.5795" transform="matrix(1 0 0 -1 2 39)" stroke="#CE91FF" stroke-width="2"/>
<rect x="-1" y="1" width="36.8657" height="36.8657" rx="8.5795" transform="matrix(1 0 0 -1 2 39)" stroke="black" stroke-opacity="0.2" stroke-width="2"/>
</svg>
