<svg width="277" height="281" viewBox="0 0 277 281" fill="none" xmlns="http://www.w3.org/2000/svg">
<g clip-path="url(#clip0_453_312)">
<path d="M276.875 311.227C276.875 76.7368 184.421 -0.601987 -15.0005 -0.601985L-281.297 -0.601982C-480.718 -0.601979 -574.378 76.7368 -574.378 311.227L-574.378 589.487C-574.378 613.206 -561.029 626.898 -537.948 626.898L239.153 626.898C263.483 626.898 275.626 614.443 276.875 589.487L276.875 311.227ZM-365.268 307.472C-365.268 247.58 -355.45 217.678 -282.546 217.678L-15.0005 217.678C60.4014 217.678 67.6359 247.58 67.6359 307.472L67.6359 374.829C67.6359 398.503 55.4923 412.284 31.1622 412.284L-328.709 412.284C-351.876 412.284 -365.268 398.503 -365.268 374.829L-365.268 307.472Z" fill="#1169FE"/>
<ellipse rx="88" ry="89" transform="matrix(-1 -7.05502e-10 7.15579e-10 1 130 119)" fill="#4FE9A4"/>
</g>
<defs>
<clipPath id="clip0_453_312">
<rect width="281" height="378" fill="white" transform="matrix(-1.19249e-08 -1 -1 1.19249e-08 277 281)"/>
</clipPath>
</defs>
</svg>
